<svg version="1.1" id="Layer_1" xmlns="http://www.w3.org/2000/svg" xmlns:xlink="http://www.w3.org/1999/xlink" x="0px" y="0px"
	 width="100%" viewBox="0 0 1200 1200" enable-background="new 0 0 1200 1200" xml:space="preserve">
<path fill="#F33B11" opacity="1.000000" stroke="none" 
	d="
M1.000000,1197.000000 
	C1.000000,798.377930 1.000000,399.755859 1.000000,1.066903 
	C400.910645,1.066903 800.821289,1.066903 1201.000000,1.066903 
	C1201.000000,399.365997 1201.000000,797.732056 1200.549072,1196.549316 
	C800.398743,1197.000366 400.699371,1197.000244 1.000000,1197.000000 
M454.421417,678.006104 
	C432.233582,684.693359 410.875366,693.397705 390.315033,704.103577 
	C331.574066,734.690308 289.420197,779.844666 267.318604,842.964111 
	C253.056778,883.694031 246.281189,925.721558 244.124954,968.640137 
	C243.987305,971.379883 244.107010,974.132690 244.107010,976.686523 
	C290.183044,976.686523 335.597443,976.686523 380.661011,976.686523 
	C382.796936,962.184021 384.537750,947.979980 387.049835,933.913696 
	C390.157654,916.511658 395.398346,899.710266 402.882812,883.630127 
	C413.822296,860.127258 430.526611,842.193604 452.735168,828.662170 
	C479.641693,812.268311 508.944519,803.486389 539.554199,797.868896 
	C539.554199,857.654419 539.554199,917.065002 539.554199,976.236084 
	C584.240356,976.236084 628.912048,976.236084 674.466675,976.236084 
	C674.466675,917.051086 674.466675,858.627563 674.466675,800.021240 
	C676.319458,800.021240 677.336121,799.820435 678.243042,800.051025 
	C695.290588,804.385010 712.883179,807.294617 729.235474,813.479919 
	C755.815002,823.533936 779.790283,838.183105 796.465698,862.345032 
	C813.409668,886.896057 821.343262,914.747375 826.009338,943.732666 
	C827.718628,954.350830 828.801453,965.069824 830.156921,975.639771 
	C875.940491,975.639771 921.513367,975.639771 967.281494,975.639771 
	C965.860352,934.181396 960.183472,893.805969 947.961060,854.430725 
	C929.515930,795.008850 894.981445,748.065552 841.702271,715.112732 
	C799.353455,688.920227 753.258423,673.187134 704.624451,664.127258 
	C694.518433,662.244629 684.335938,660.772339 674.632874,659.183655 
	C674.632874,624.886841 674.632874,590.961853 674.632874,556.850708 
	C679.091614,556.161987 682.853638,555.554565 686.623840,555.002502 
	C733.348022,548.160889 778.299744,535.629333 820.519470,513.988220 
	C883.185364,481.866852 926.789734,433.524506 948.398621,365.879364 
	C958.943420,332.869507 965.013367,299.107361 967.838989,264.678223 
	C968.500793,256.614319 968.745178,248.516159 969.194153,240.202026 
	C923.056458,240.202026 877.612183,240.202026 831.783630,240.202026 
	C831.569397,241.868210 831.291260,243.481522 831.163696,245.106644 
	C829.571228,265.399719 826.426331,285.440979 820.658875,304.977386 
	C812.061218,334.100647 798.971497,360.555878 773.709900,379.067535 
	C756.030212,392.023224 736.927063,402.511108 715.912231,409.055115 
	C702.537781,413.219879 688.968750,416.759979 674.648315,420.817810 
	C674.648315,359.663025 674.648315,299.928192 674.648315,240.280853 
	C629.534729,240.280853 584.938171,240.280853 539.920288,240.280853 
	C539.920288,299.968689 539.920288,359.376678 539.920288,419.104797 
	C511.438416,413.322510 484.545166,404.771545 459.568359,390.422058 
	C435.338409,376.501587 416.285614,358.050201 404.493256,332.394775 
	C396.585876,315.191528 391.199585,297.250458 387.990753,278.671448 
	C385.845856,266.252625 384.415009,253.710510 382.578796,240.611465 
	C337.116119,240.611465 291.565948,240.611465 245.966217,240.611465 
	C245.891586,241.089172 245.735260,241.574036 245.752518,242.052628 
	C247.217651,282.643585 252.967575,322.536987 265.206604,361.372131 
	C283.103760,418.160919 315.568939,463.909241 366.035675,496.590424 
	C410.336853,525.278931 458.964355,542.167480 510.413452,551.909729 
	C520.173218,553.757874 530.002502,555.238770 539.249207,556.796387 
	C539.249207,591.495605 539.249207,625.733276 539.249207,660.162781 
	C510.321289,663.990356 482.428040,669.347290 454.421417,678.006104 
z"/>
<path fill="#E43710" opacity="1.000000" stroke="none" 
	d="
M1.000000,1197.499023 
	C400.699371,1197.000244 800.398743,1197.000366 1200.549072,1197.000244 
	C1201.000000,1198.332764 1201.000000,1199.665527 1201.000000,1200.998291 
	C801.000000,1200.998413 401.000000,1200.998413 1.000000,1200.997559 
	C1.000000,1199.997192 1.000000,1198.997681 1.000000,1197.499023 
z"/>
<path fill="#FBF8F8" opacity="1.000000" stroke="none" 
	d="
M454.805664,677.887817 
	C482.428040,669.347290 510.321289,663.990356 539.249207,660.162781 
	C539.249207,625.733276 539.249207,591.495605 539.249207,556.796387 
	C530.002502,555.238770 520.173218,553.757874 510.413452,551.909729 
	C458.964355,542.167480 410.336853,525.278931 366.035675,496.590424 
	C315.568939,463.909241 283.103760,418.160919 265.206604,361.372131 
	C252.967575,322.536987 247.217651,282.643585 245.752518,242.052628 
	C245.735260,241.574036 245.891586,241.089172 245.966217,240.611465 
	C291.565948,240.611465 337.116119,240.611465 382.578796,240.611465 
	C384.415009,253.710510 385.845856,266.252625 387.990753,278.671448 
	C391.199585,297.250458 396.585876,315.191528 404.493256,332.394775 
	C416.285614,358.050201 435.338409,376.501587 459.568359,390.422058 
	C484.545166,404.771545 511.438416,413.322510 539.920288,419.104797 
	C539.920288,359.376678 539.920288,299.968689 539.920288,240.280853 
	C584.938171,240.280853 629.534729,240.280853 674.648315,240.280853 
	C674.648315,299.928192 674.648315,359.663025 674.648315,420.817810 
	C688.968750,416.759979 702.537781,413.219879 715.912231,409.055115 
	C736.927063,402.511108 756.030212,392.023224 773.709900,379.067535 
	C798.971497,360.555878 812.061218,334.100647 820.658875,304.977386 
	C826.426331,285.440979 829.571228,265.399719 831.163696,245.106644 
	C831.291260,243.481522 831.569397,241.868210 831.783630,240.202026 
	C877.612183,240.202026 923.056458,240.202026 969.194153,240.202026 
	C968.745178,248.516159 968.500793,256.614319 967.838989,264.678223 
	C965.013367,299.107361 958.943420,332.869507 948.398621,365.879364 
	C926.789734,433.524506 883.185364,481.866852 820.519470,513.988220 
	C778.299744,535.629333 733.348022,548.160889 686.623840,555.002502 
	C682.853638,555.554565 679.091614,556.161987 674.632874,556.850708 
	C674.632874,590.961853 674.632874,624.886841 674.632874,659.183655 
	C684.335938,660.772339 694.518433,662.244629 704.624451,664.127258 
	C753.258423,673.187134 799.353455,688.920227 841.702271,715.112732 
	C894.981445,748.065552 929.515930,795.008850 947.961060,854.430725 
	C960.183472,893.805969 965.860352,934.181396 967.281494,975.639771 
	C921.513367,975.639771 875.940491,975.639771 830.156921,975.639771 
	C828.801453,965.069824 827.718628,954.350830 826.009338,943.732666 
	C821.343262,914.747375 813.409668,886.896057 796.465698,862.345032 
	C779.790283,838.183105 755.815002,823.533936 729.235474,813.479919 
	C712.883179,807.294617 695.290588,804.385010 678.243042,800.051025 
	C677.336121,799.820435 676.319458,800.021240 674.466675,800.021240 
	C674.466675,858.627563 674.466675,917.051086 674.466675,976.236084 
	C628.912048,976.236084 584.240356,976.236084 539.554199,976.236084 
	C539.554199,917.065002 539.554199,857.654419 539.554199,797.868896 
	C508.944519,803.486389 479.641693,812.268311 452.735168,828.662170 
	C430.526611,842.193604 413.822296,860.127258 402.882812,883.630127 
	C395.398346,899.710266 390.157654,916.511658 387.049835,933.913696 
	C384.537750,947.979980 382.796936,962.184021 380.661011,976.686523 
	C335.597443,976.686523 290.183044,976.686523 244.107010,976.686523 
	C244.107010,974.132690 243.987305,971.379883 244.124954,968.640137 
	C246.281189,925.721558 253.056778,883.694031 267.318604,842.964111 
	C289.420197,779.844666 331.574066,734.690308 390.315033,704.103577 
	C410.875366,693.397705 432.233582,684.693359 454.805664,677.887817 
z"/>
</svg>